<svg width="32" height="33" viewBox="0 0 32 33" fill="none" xmlns="http://www.w3.org/2000/svg">
<path d="M17.4765 0.493901C17.2949 0.503667 17.1328 0.611089 17.0527 0.777104L15.1289 4.62476C14.7187 4.72828 12.5175 5.34351 11.1015 8.07203L11.0879 8.09351L10.7148 9.03101C10.6562 9.00953 10.5937 8.99976 10.5312 8.99976C9.16794 8.99976 7.957 9.68335 7.22653 10.7244L3.18552 16.0876L0.814421 17.0369C0.640593 17.0974 0.515593 17.2478 0.486296 17.4294C0.457 17.6111 0.531219 17.7927 0.67575 17.9041C0.822234 18.0173 1.01755 18.0388 1.18552 17.9626L3.68552 16.9626C3.7695 16.9294 3.84372 16.8728 3.89841 16.8005L8.03708 11.3123C8.04098 11.3064 8.04294 11.3025 8.04684 11.2966C8.55856 10.5662 9.38083 10.0759 10.3242 10.0134L8.34372 14.9763L4.97653 18.6013L5.33005 18.9412C5.33005 18.9412 5.69723 19.2947 6.31442 19.8884C7.19333 20.7302 8.49606 20.8084 9.73825 20.4744C10.9804 20.1404 12.2246 19.3982 13.164 18.4216C13.3886 18.1853 13.6836 17.7654 14.1035 17.1638C14.5254 16.5623 15.0312 15.8201 15.5175 15.0974C16.416 13.7634 17.1211 12.6912 17.248 12.4998H28.5C28.5019 12.4998 28.5019 12.4998 28.5039 12.4998C29.6113 12.5017 30.5 13.3904 30.5 14.4998C30.5 15.6091 29.6093 16.4998 28.5 16.4998H27.5C27.2265 16.5037 27.0078 16.7263 27.0078 16.9998C27.0078 17.2732 27.2265 17.4959 27.5 17.4998C28.6093 17.4998 29.5 18.3904 29.5 19.4998C29.5 20.6091 28.6093 21.4998 27.5 21.4998H27C26.7265 21.5037 26.5078 21.7263 26.5078 21.9998C26.5078 22.2732 26.7265 22.4959 27 22.4998C28.1093 22.4998 29 23.3904 29 24.4998C29 25.4529 28.3379 26.238 27.4511 26.4431C27.2597 26.488 27.1113 26.6384 27.0742 26.8318C27.0351 27.0232 27.1113 27.2205 27.2715 27.3357C27.7129 27.656 28 28.1638 28 28.7498C28 29.7224 27.2226 30.4998 26.25 30.4998H23.5V28.9998C23.5 27.6248 22.375 26.4998 21 26.4998C20.1621 26.4998 19.455 26.9431 19 27.5798C18.5449 26.9431 17.8379 26.4998 17 26.4998C16.1621 26.4998 15.455 26.9431 15 27.5798C14.5449 26.9431 13.8379 26.4998 13 26.4998C12.1621 26.4998 11.455 26.9431 11 27.5798C10.5449 26.9431 9.83786 26.4998 8.99997 26.4998C7.62497 26.4998 6.49997 27.6248 6.49997 28.9998V30.4998H0.999968C0.820281 30.4978 0.652312 30.5916 0.560515 30.7478C0.470671 30.9041 0.470671 31.0955 0.560515 31.2517C0.652312 31.408 0.820281 31.5017 0.999968 31.4998H6.71286C7.10153 32.3806 7.98044 32.9998 8.99997 32.9998C9.83786 32.9998 10.5449 32.5564 11 31.9197C11.455 32.5564 12.1621 32.9998 13 32.9998C13.8379 32.9998 14.5449 32.5564 15 31.9197C15.455 32.5564 16.1621 32.9998 17 32.9998C17.8379 32.9998 18.5449 32.5564 19 31.9197C19.455 32.5564 20.1621 32.9998 21 32.9998C22.0195 32.9998 22.8984 32.3806 23.2871 31.4998H26.25C27.7636 31.4998 29 30.2634 29 28.7498C29 28.1208 28.7343 27.5876 28.3769 27.1248C29.332 26.6228 30 25.6501 30 24.4998C30 23.5388 29.5136 22.7185 28.8047 22.1697C29.7988 21.6775 30.5 20.6775 30.5 19.4998C30.5 18.6209 30.1015 17.8474 29.4961 17.2966C30.6543 16.8826 31.5 15.7986 31.5 14.4998C31.5 13.0779 30.5 11.8845 29.1679 11.5779L29.4043 10.8669C29.7793 9.74195 29.6035 8.53492 29.0234 7.50757L29.9746 4.65796C30.0273 4.50562 30.0039 4.33765 29.9121 4.20484C29.8183 4.07203 29.6679 3.9939 29.5058 3.99195C29.2871 3.99195 29.0918 4.13257 29.0254 4.34156L27.8066 7.99976H28.1679C28.6054 8.77906 28.7422 9.69703 28.455 10.5525L28.1406 11.4998H17.0683C16.8672 11.4666 16.666 11.5564 16.5605 11.7283C16.5605 11.7283 15.6582 13.0974 14.6875 14.5388C14.2031 15.2595 13.6992 15.9978 13.2851 16.5896C12.8711 17.1814 12.5 17.6677 12.4433 17.7283C11.6367 18.5662 10.5175 19.2302 9.47848 19.5076C8.44138 19.7869 7.54489 19.6814 7.00778 19.1658C6.61325 18.7869 6.53708 18.7126 6.37692 18.5603L9.20309 15.5212L11.9922 8.5271C13.3515 5.91773 15.5976 5.48999 15.5976 5.48999L15.8379 5.44312L17.9472 1.22242C18.0293 1.06421 18.0215 0.872807 17.9238 0.722417C17.8261 0.572026 17.6562 0.484135 17.4765 0.493901ZM24.5 5.49976C24.2246 5.49976 24 5.72437 24 5.99976C24 6.27515 24.2246 6.49976 24.5 6.49976C24.7754 6.49976 25 6.27515 25 5.99976C25 5.72437 24.7754 5.49976 24.5 5.49976ZM26.5 5.99976C26.2246 5.99976 26 6.22437 26 6.49976C26 6.77515 26.2246 6.99976 26.5 6.99976C26.7754 6.99976 27 6.77515 27 6.49976C27 6.22437 26.7754 5.99976 26.5 5.99976ZM23.5 16.4998C23.2246 16.4998 23 16.7244 23 16.9998C23 17.2751 23.2246 17.4998 23.5 17.4998C23.7754 17.4998 24 17.2751 24 16.9998C24 16.7244 23.7754 16.4998 23.5 16.4998ZM25.5 16.4998C25.2246 16.4998 25 16.7244 25 16.9998C25 17.2751 25.2246 17.4998 25.5 17.4998C25.7754 17.4998 26 17.2751 26 16.9998C26 16.7244 25.7754 16.4998 25.5 16.4998ZM25 21.4998C24.7246 21.4998 24.5 21.7244 24.5 21.9998C24.5 22.2751 24.7246 22.4998 25 22.4998C25.2754 22.4998 25.5 22.2751 25.5 21.9998C25.5 21.7244 25.2754 21.4998 25 21.4998ZM25.5 26.4998C25.2246 26.4998 25 26.7244 25 26.9998C25 27.2751 25.2246 27.4998 25.5 27.4998C25.7754 27.4998 26 27.2751 26 26.9998C26 26.7244 25.7754 26.4998 25.5 26.4998ZM8.99997 27.4998C9.83395 27.4998 10.5 28.1658 10.5 28.9998C10.5039 29.2732 10.7265 29.4919 11 29.4919C11.2734 29.4919 11.4961 29.2732 11.5 28.9998C11.5 28.1658 12.166 27.4998 13 27.4998C13.834 27.4998 14.5 28.1658 14.5 28.9998C14.5 29.0173 14.5019 29.033 14.5019 29.0486C14.5058 29.0818 14.5136 29.115 14.5234 29.1482C14.5351 29.1794 14.5488 29.2107 14.5644 29.24C14.58 29.2673 14.5996 29.2947 14.623 29.3201C14.6777 29.3845 14.7461 29.4314 14.8261 29.4607C14.8574 29.4724 14.8886 29.4822 14.9218 29.4861C14.9375 29.49 14.955 29.4919 14.9707 29.4919C15.0058 29.4939 15.039 29.4919 15.0703 29.488C15.0879 29.4861 15.1035 29.4822 15.1191 29.4783C15.1523 29.4705 15.1836 29.4587 15.2148 29.4451C15.2304 29.4373 15.2441 29.4294 15.2578 29.4216C15.3007 29.3943 15.3398 29.363 15.373 29.3259C15.3945 29.3005 15.414 29.2732 15.4316 29.2439C15.4648 29.1873 15.4882 29.1228 15.4961 29.0564C15.498 29.0369 15.5 29.0193 15.5 28.9998C15.5 28.1658 16.166 27.4998 17 27.4998C17.834 27.4998 18.5 28.1658 18.5 28.9998C18.5 29.0173 18.5019 29.033 18.5019 29.0486C18.5058 29.0662 18.5078 29.0837 18.5117 29.0994C18.541 29.2322 18.6211 29.3455 18.7343 29.4177C18.75 29.4255 18.7636 29.4333 18.7793 29.4412C18.7949 29.449 18.8086 29.4548 18.8261 29.4607C18.8574 29.4724 18.8886 29.4822 18.9218 29.4861C18.9375 29.49 18.955 29.4919 18.9707 29.4919C18.9882 29.4919 19.0058 29.4919 19.0215 29.4919C19.0547 29.49 19.0879 29.4861 19.1191 29.4783C19.1523 29.4705 19.1836 29.4587 19.2148 29.4451C19.2441 29.4294 19.2734 29.4119 19.2988 29.3923C19.3125 29.3826 19.3261 29.3728 19.3379 29.3611C19.3886 29.3162 19.4277 29.2615 19.455 29.2009C19.4629 29.1853 19.4687 29.1697 19.4746 29.1541C19.4785 29.1365 19.4843 29.1208 19.4863 29.1052C19.4902 29.0896 19.4941 29.072 19.4961 29.0564C19.498 29.0369 19.5 29.0193 19.5 28.9998C19.5 28.1658 20.166 27.4998 21 27.4998C21.834 27.4998 22.5 28.1658 22.5 28.9998V30.4998C22.5 31.3337 21.834 31.9998 21 31.9998C20.166 31.9998 19.5 31.3337 19.5 30.4998C19.5 30.4822 19.498 30.4666 19.498 30.4509C19.4941 30.4177 19.4863 30.3845 19.4765 30.3513C19.4648 30.3201 19.4511 30.2888 19.4355 30.2595C19.4199 30.2322 19.4004 30.2048 19.3769 30.1794C19.3457 30.1423 19.3066 30.1091 19.2656 30.0818C19.25 30.074 19.2363 30.0662 19.2207 30.0583C19.205 30.0505 19.1914 30.0447 19.1738 30.0388C19.1582 30.033 19.1425 30.0271 19.1269 30.0232C19.0781 30.0115 19.0293 30.0056 18.9785 30.0076C18.9453 30.0095 18.9121 30.0134 18.8808 30.0212C18.8632 30.0251 18.8476 30.031 18.832 30.0369C18.8164 30.0408 18.8007 30.0486 18.7851 30.0544C18.7402 30.0759 18.6972 30.1052 18.6621 30.1384C18.625 30.1736 18.5937 30.2126 18.5683 30.2556C18.5605 30.2693 18.5527 30.2849 18.5449 30.2986C18.5371 30.3142 18.5312 30.3298 18.5254 30.3455C18.5215 30.363 18.5156 30.3787 18.5136 30.3943C18.5058 30.4275 18.5 30.4587 18.5 30.4919C18.5 30.4958 18.5 30.4978 18.5 30.4998C18.5 31.3337 17.834 31.9998 17 31.9998C16.166 31.9998 15.5 31.3337 15.5 30.4998C15.5 30.4822 15.498 30.4666 15.498 30.4509C15.4941 30.4333 15.4922 30.4158 15.4882 30.4001C15.4804 30.3669 15.4707 30.3357 15.459 30.3044C15.4179 30.2126 15.3496 30.1345 15.2656 30.0818C15.1347 30.0017 14.9765 29.9841 14.832 30.0369C14.8007 30.0466 14.7695 30.0623 14.7422 30.0779C14.7129 30.0955 14.6855 30.115 14.6621 30.1384C14.6367 30.1619 14.6152 30.1873 14.5937 30.2126C14.5859 30.2263 14.5761 30.2419 14.5683 30.2556C14.5605 30.2693 14.5527 30.2849 14.5449 30.2986C14.5312 30.3298 14.5195 30.3611 14.5136 30.3943C14.5058 30.4275 14.5 30.4587 14.5 30.4919C14.5 30.4958 14.5 30.4978 14.5 30.4998C14.5 31.3337 13.834 31.9998 13 31.9998C12.166 31.9998 11.5 31.3337 11.5 30.4998C11.4961 30.2263 11.2734 30.0076 11 30.0076C10.7265 30.0076 10.5039 30.2263 10.5 30.4998C10.5 31.3337 9.83395 31.9998 8.99997 31.9998C8.16598 31.9998 7.49997 31.3337 7.49997 30.4998V28.9998C7.49997 28.1658 8.16598 27.4998 8.99997 27.4998Z" fill="#E4B564"/>
</svg>
