<svg width="76" height="81" viewBox="0 0 76 81" fill="none" xmlns="http://www.w3.org/2000/svg">
<path d="M38.8787 80.3551H45.5459L36.2392 58.3799L35.9816 57.7718L21.8137 24.3185H21.2581C15.2258 34.5575 8.08235 49.0032 3.87564 60.3533C1.97071 65.4332 0.859503 69.878 0.462643 73.3703C0.0657833 76.9421 0.938874 79.3232 3.08192 80.2757C3.63752 80.7519 3.87564 80.7519 4.35187 80.8313C7.9236 80.99 9.27293 78.0533 10.781 74.0847C13.3209 68.2905 16.4164 60.1152 29.9096 58.8453L38.8787 80.3551ZM29.6715 58.2897C15.9402 59.639 12.7653 67.9731 10.146 73.9259C8.87607 77.577 7.60612 80.3551 4.43124 80.117C4.03438 79.8788 3.79626 79.8788 3.32003 79.7201C1.41511 79.0851 0.859503 76.6246 1.01825 73.3703C1.41511 69.9574 2.52631 65.5919 4.43124 60.5121C7.76486 51.3049 13.1622 40.5104 18.0038 31.1445L29.6715 58.2897ZM38.6802 0.632812H32.4098V36.4296C32.4098 47.4219 40.0985 54.8807 49.582 56.6328C51.5457 56.9956 53.5864 57.1137 55.6517 56.9679C55.6988 56.9645 55.746 56.9611 55.7931 56.9575C57.9675 56.7913 60.1678 56.3324 62.3331 55.5582C70.6671 52.4627 75.0326 45.2398 75.0326 36.4296V0.632812H68.8416C74.0801 7.4588 74.3182 24.5238 74.3182 36.4296C74.3182 45.5573 69.794 52.1452 62.1743 54.9232C59.9711 55.7443 57.8293 56.1241 55.7931 56.123C46.0192 56.1177 38.6802 47.3337 38.6802 36.4296V0.632812Z" fill="#F2F1EC"/>
<path d="M35.9816 57.7718L36.2392 58.3799L55.6517 56.9679C53.5864 57.1137 51.5457 56.9956 49.582 56.6328L35.9816 57.7718Z" fill="#F2F1EC"/>
</svg>
