<svg width="65" height="42" viewBox="0 0 65 42" fill="none" xmlns="http://www.w3.org/2000/svg">
<path d="M9.947 40.7181C-0.319218 40.7181 0.912729 30.6866 2.84864 26.4627L11.8829 6.98626L27.4876 41.6568H31.7701L13.1735 0.533203H8.94971L11.2963 5.87164L2.02735 26.1108C-1.43384 33.6198 0.854065 41.6568 9.947 41.6568H18.9226V40.7181H9.947ZM51.9518 40.7181C44.5014 40.7181 40.9816 36.729 40.9816 27.988V0.533203H37.0511V27.988C37.0511 37.2569 40.1603 41.6568 51.9518 41.6568C61.2794 41.6568 64.7406 35.0864 64.7406 23.4709V0.826523H63.8019V23.4709C63.8019 33.7958 60.3408 40.7181 51.9518 40.7181Z" fill="black"/>
</svg>
