<svg width="248" height="57" viewBox="0 0 248 57" fill="none" xmlns="http://www.w3.org/2000/svg">
<path d="M122.396 0C125.359 0 128.296 0.317488 131.206 0.952463C134.169 1.58744 136.789 2.61928 139.064 4.04797C141.392 5.47666 143.271 7.38159 144.699 9.76275C146.128 12.091 146.842 15.6591 146.842 19.0985C146.842 22.538 146.128 24.764 144.699 27.1452C143.271 29.4734 141.392 31.3519 139.064 32.7806C136.789 34.2093 134.169 35.2411 131.206 35.8761C128.296 36.5111 125.359 36.8286 122.396 36.8286H118.427C115.993 36.8286 113.586 37.1461 111.204 37.781V52.4649C111.204 55.8193 111.204 54.9959 111.204 56.1652H104.617C104.617 55.027 104.617 55.4327 104.617 52.068V40.8765C103.082 41.9878 101.839 43.3634 100.886 45.0039C99.9336 46.6444 99.4574 48.5756 99.4574 50.798H99.0605C99.0605 48.3639 99.5631 46.2738 100.569 44.5277C101.574 42.7284 102.923 41.2204 104.617 40.0035V3.413C104.617 0.450942 104.617 1.05043 104.617 0H122.396ZM140.016 18.4143C140.016 15.9802 139.673 13.7049 138.985 11.5883C138.35 9.41881 137.318 7.54033 135.889 5.9529C134.46 4.36546 132.635 3.12195 130.412 2.22242C128.19 1.26995 125.518 0.793723 122.396 0.793723H116.522C115.887 0.793723 115.252 0.820179 114.617 0.873091C113.982 0.873091 113.401 0.978923 112.871 1.19058C112.395 1.34932 111.998 1.61389 111.681 1.9843C111.363 2.30179 111.204 2.77802 111.204 3.413V36.9873C112.369 36.6168 113.559 36.3787 114.776 36.273C115.993 36.1142 117.21 36.0349 118.427 36.0349H122.396C125.518 36.0349 128.19 35.585 130.412 34.6855C132.635 33.7331 134.46 32.4631 135.889 30.8757C137.318 29.2882 138.35 27.4362 138.985 25.3196C139.673 23.1502 140.016 20.8484 140.016 18.4143ZM174.568 30.9249V56.1652H168.298V32.5918L148.931 0.0492674H156.075L168.298 20.6066L174.171 30.3693L187.268 4.97033C187.691 4.17661 187.876 3.4887 187.823 2.90666C187.771 2.27168 187.585 1.76899 187.268 1.39859C186.95 0.975272 186.553 0.657785 186.077 0.446125C185.654 0.234469 185.257 0.102181 184.887 0.0492674H193.856C193.327 0.102181 192.771 0.313837 192.189 0.684241C191.607 1.00173 191.025 1.39859 190.443 1.87482C189.914 2.29814 189.437 2.77437 189.014 3.30352C188.644 3.77975 188.379 4.20305 188.22 4.57347L174.568 30.9249ZM247.491 0.128637V56.1652H241.459V2.03356C238.813 3.14477 236.538 4.9174 234.633 7.35148C232.78 9.78557 231.22 12.6165 229.95 15.8443C228.68 19.0192 227.674 22.4586 226.934 26.1626C226.192 29.8667 225.611 33.5442 225.187 37.1953C224.817 40.8464 224.579 44.3125 224.473 47.5931C224.367 50.8736 224.314 53.731 224.314 56.1652H223.521L202.09 6.79588L199.868 1.55733V56.1652H199.391V0.128637H205.979L224.076 41.9576C224.341 38.9415 224.711 35.8197 225.187 32.5918C225.664 29.3111 226.299 26.1362 227.092 23.0671C227.886 19.9452 228.865 17.0084 230.029 14.2568C231.193 11.4524 232.595 9.01829 234.236 6.95462C235.929 4.83803 237.86 3.17122 240.03 1.95419C242.199 0.737157 244.686 0.128637 247.491 0.128637Z" fill="#F2F1EC"/>
<path d="M30.0804 34.6069C26.6939 34.9244 23.9159 35.6387 21.7464 36.7499C19.5769 37.8081 17.7778 39.0781 16.3491 40.5598C14.9733 41.9885 13.8886 43.5496 13.0948 45.2427C12.3011 46.8832 11.5868 48.4176 10.9518 49.8463C10.5814 50.8518 10.1845 51.7776 9.76122 52.6243C9.3908 53.4711 8.9675 54.1854 8.49127 54.7674C8.01504 55.3493 7.45943 55.7992 6.82446 56.1167C6.18948 56.4872 5.42221 56.6459 4.52268 56.5929C4.25811 56.5399 4.04644 56.4872 3.8877 56.4342C3.72896 56.4342 3.51729 56.3018 3.25273 56.0373C1.08323 55.0849 0.210138 52.7831 0.633454 49.132C0.845113 47.3858 1.21551 45.4278 1.74466 43.2584C2.32672 41.036 3.09398 38.6549 4.04644 36.115C5.10472 33.2575 6.32178 30.2678 7.69755 27.1459C9.07332 23.971 10.5285 20.8226 12.063 17.7006C13.5975 14.5258 15.1585 11.4303 16.7459 8.41412C18.3334 5.39799 19.8944 2.61998 21.4289 0.0800781H21.9845L45.7167 56.1167H39.0495L30.0804 34.6069ZM18.1746 6.90605C16.9576 9.23428 15.7141 11.6419 14.4442 14.1289C13.2271 16.6159 12.0101 19.1293 10.7931 21.6692C9.62892 24.1562 8.51772 26.6432 7.45943 29.1302C6.40115 31.6172 5.44869 33.9982 4.60204 36.2737C3.64959 38.8136 2.88232 41.1684 2.30026 43.3378C1.77112 45.5072 1.40072 47.4388 1.18906 49.132C1.08323 50.7724 1.18906 52.1744 1.50655 53.3387C1.87695 54.4499 2.53838 55.1642 3.49085 55.4817C3.75541 55.5874 3.94063 55.6668 4.04644 55.7198C4.20518 55.7198 4.39037 55.7729 4.60204 55.8786C6.18948 55.9843 7.38006 55.4554 8.17378 54.2911C8.9675 53.0742 9.68185 51.5395 10.3168 49.6876C10.9518 48.2058 11.6926 46.6184 12.5392 44.9252C13.3859 43.2321 14.4971 41.6446 15.8729 40.1629C17.3016 38.6285 19.1271 37.3055 21.3495 36.1943C23.5719 35.0831 26.4029 34.3688 29.8423 34.0513L18.1746 6.90605ZM55.6149 36.1396C55.6149 39.4202 56.2232 42.463 57.4405 45.2674C58.7104 48.0717 60.4036 50.3735 62.5203 52.1727C64.6897 53.9189 67.2032 55.0831 70.0606 55.6651C72.918 56.1943 75.9341 55.8502 79.109 54.6332C82.9189 53.2576 85.882 50.9821 87.9987 47.8073C90.1681 44.6324 91.2529 40.7432 91.2529 36.1396C91.2529 33.1763 91.1999 29.975 91.0942 26.5356C91.0411 23.0432 90.8294 19.6566 90.4592 16.3759C90.0887 13.0423 89.5331 9.97326 88.7924 7.1688C88.1044 4.31141 87.0989 2.0361 85.7763 0.342829H91.9673V36.1396C91.9673 40.5844 90.8824 44.5 88.713 47.8866C86.5963 51.2733 83.4478 53.7338 79.2678 55.2682C75.7224 56.5382 72.1506 56.9881 68.5526 56.6175C65.0072 56.247 61.8059 55.2152 58.9486 53.522C56.0912 51.7759 53.7627 49.421 51.9638 46.4579C50.2176 43.4948 49.3445 40.0552 49.3445 36.1396V0.342829H55.6149V36.1396Z" fill="#F2F1EC"/>
</svg>
