<svg width="28" height="35" viewBox="0 0 28 35" fill="none" xmlns="http://www.w3.org/2000/svg">
<path d="M14.0002 0C13.5082 0 13.0162 0.186079 12.6437 0.558594L11.6291 1.57422L10.3029 1.02441H10.3019C9.32849 0.621727 8.19943 1.08905 7.79607 2.0625L7.79314 2.06738L7.23845 3.49707H5.91911C4.86579 3.49707 4.00017 4.36215 4.00017 5.41602V6.73535L2.57146 7.29102L2.56658 7.29297C1.5932 7.6963 1.12407 8.82616 1.52751 9.7998L2.07732 11.126L1.06267 12.1406C0.317054 12.8856 0.317273 14.1084 1.06169 14.8535L2.07634 15.8682L1.52654 17.1943V17.1953C1.12385 18.1688 1.59215 19.2978 2.5656 19.7012L2.57048 19.7031L4.00017 20.2588V22.0781C4.00017 23.1318 4.86546 23.9971 5.91911 23.9971H5.9699L2.70134 31.5889L7.75701 31.0273L10.6818 35.3008L14.0031 27.4912L17.3185 35.3018L20.2433 31.0273L25.3049 31.5898L21.7287 23.415H22.0002C23.0535 23.415 23.9191 22.55 23.9191 21.4961V20.2646L25.426 19.7041L25.4347 19.7012C26.4081 19.2978 26.8763 18.168 26.4728 17.1943L25.923 15.8682L26.9386 14.8535C27.6837 14.1085 27.6837 12.8847 26.9386 12.1396L25.923 11.125L26.4728 9.79883C26.8755 8.82539 26.4082 7.69535 25.4347 7.29199L25.4299 7.29004L24.0002 6.73535V5.41602C24.0002 4.36257 23.1352 3.49707 22.0812 3.49707H20.7619L20.2062 2.06738L20.2043 2.0625C19.8009 1.08913 18.6711 0.620969 17.6974 1.02441L16.3713 1.57422L15.3566 0.558594C14.9841 0.186079 14.4922 0 14.0002 0ZM14.0002 0.994141C14.2341 0.994141 14.4681 1.08512 14.6496 1.2666L16.1369 2.75293L18.0802 1.94824C18.5546 1.75169 19.0838 1.97068 19.2804 2.44531L20.0783 4.49707H22.0812C22.5952 4.49707 23.0002 4.90246 23.0002 5.41602V7.41895L25.0519 8.21582C25.5265 8.41246 25.7453 8.94145 25.549 9.41602L24.7443 11.3594L26.2306 12.8467C26.5936 13.2097 26.5936 13.7835 26.2306 14.1465L24.7443 15.6328L25.549 17.5771C25.7454 18.051 25.5266 18.5792 25.0529 18.7764L22.9191 19.5693V21.4961C22.9191 22.0092 22.5128 22.415 22.0002 22.415H20.0724L19.2795 24.5488C19.0824 25.0224 18.5543 25.242 18.0802 25.0459L16.1369 24.2402L14.6496 25.7275C14.2866 26.0905 13.7137 26.0905 13.3508 25.7275L11.8635 24.2402L9.92009 25.0459C9.44574 25.2425 8.91656 25.0225 8.7199 24.5479L8.70915 24.5234L7.87712 22.9971H5.91911C5.40577 22.9971 5.00017 22.5915 5.00017 22.0781V19.5752L2.94841 18.7773C2.47386 18.5807 2.25405 18.0517 2.45036 17.5771L3.25603 15.6338L1.76872 14.1465C1.40617 13.7836 1.40629 13.2107 1.7697 12.8477L3.25701 11.3604L2.45134 9.41699C2.25479 8.94264 2.47476 8.41347 2.94939 8.2168L5.00017 7.41895V5.41602C5.00017 4.90288 5.40644 4.49707 5.91911 4.49707H7.92302L8.7199 2.44531C8.91653 1.97076 9.44553 1.75193 9.92009 1.94824L11.8635 2.75293L13.3508 1.2666C13.5322 1.08512 13.7662 0.994141 14.0002 0.994141ZM14.5646 4.02539L14.1642 4.22656L14.0851 4.66699L14.3908 4.99414L14.5646 5.02539L14.965 4.8252L15.0441 4.38379L14.7385 4.05664L14.5646 4.02539ZM12.3136 4.16016L11.9133 4.36133L11.8342 4.80176L12.1408 5.12891L12.3136 5.16016L12.715 4.95996L12.7931 4.51855L12.4875 4.19141L12.3136 4.16016ZM16.7804 4.43945L16.3801 4.64062L16.301 5.08105L16.6066 5.4082L16.7804 5.43945L17.1808 5.23926L17.2599 4.79785L16.9543 4.4707L16.7804 4.43945ZM10.172 4.86133L9.77165 5.06152L9.69255 5.50293L9.99822 5.83008L10.172 5.86133L10.5724 5.66016L10.6515 5.21973L10.3449 4.8916L10.172 4.86133ZM18.8185 5.4043L18.4181 5.60547L18.339 6.0459L18.6447 6.37305L18.8185 6.4043L19.2189 6.2041L19.298 5.7627L18.9924 5.43555L18.8185 5.4043ZM8.26384 6.0625L7.86345 6.26367L7.78435 6.7041L8.09001 7.03223L8.26384 7.0625L8.66423 6.8623L8.74333 6.4209L8.43669 6.09375L8.26384 6.0625ZM20.5539 6.8418L20.1535 7.04297L20.0744 7.48438L20.381 7.81152L20.5539 7.8418L20.9543 7.6416L21.0334 7.2002L20.7277 6.87305L20.5539 6.8418ZM6.72576 7.71289L6.32536 7.91309L6.24626 8.35449L6.5529 8.68164L6.72576 8.71289L7.12712 8.51172L7.20525 8.07031L6.89958 7.74316L6.72576 7.71289ZM21.8859 8.66211L21.4855 8.8623L21.4064 9.30371L21.7131 9.63086L21.8859 9.66211L22.2873 9.46094L22.3654 9.01953L22.0597 8.69238L21.8859 8.66211ZM18.9699 9.4668L12.5002 15.9365L9.03044 12.4668L7.9699 13.5273L12.5002 18.0576L20.0304 10.5273L18.9699 9.4668ZM5.63689 9.68555L5.2365 9.88672L5.1574 10.3271L5.46404 10.6553L5.63689 10.6855L6.03728 10.4854L6.11638 10.0439L5.81072 9.7168L5.63689 9.68555ZM22.7092 10.7607L22.3078 10.9619L22.2297 11.4023L22.5353 11.7295L22.7092 11.7607L23.1095 11.5605L23.1886 11.1191L22.882 10.792L22.7092 10.7607ZM5.07829 11.8701L4.6779 12.0703L4.5988 12.5117L4.90447 12.8389L5.07829 12.8701L5.47868 12.6689L5.55779 12.2285L5.25212 11.9014L5.07829 11.8701ZM23.0002 12.9971L22.5998 13.1973V13.1982L22.5207 13.6387L22.8263 13.9658L23.0002 13.9971L23.4006 13.7959L23.4797 13.3555L23.174 13.0283L23.0002 12.9971ZM5.07829 14.124L4.6779 14.3252L4.5988 14.7656L4.90447 15.0928L5.07829 15.124L5.47868 14.9238L5.55779 14.4824L5.25212 14.1553L5.07829 14.124ZM22.7092 15.2334L22.3078 15.4336L22.2297 15.875L22.5353 16.2021L22.7092 16.2334L23.1095 16.0322L23.1886 15.5918L22.882 15.2646L22.7092 15.2334ZM5.63689 16.3086L5.2365 16.5088L5.1574 16.9502L5.46404 17.2773L5.63689 17.3086L6.03728 17.1074L6.11638 16.667L5.81072 16.3398L5.63689 16.3086ZM21.8859 17.332L21.4855 17.5332L21.4064 17.9736L21.7131 18.3008L21.8859 18.332L22.2873 18.1318L22.3654 17.6904L22.0597 17.3633L21.8859 17.332ZM6.72576 18.2812L6.32536 18.4824L6.24626 18.9238L6.5529 19.251L6.72576 19.2812L7.12712 19.0811L7.20525 18.6396L6.89958 18.3125L6.72576 18.2812ZM20.5539 19.1514L20.1535 19.3525L20.0744 19.7939L20.381 20.1211L20.5539 20.1514L20.9552 19.9512L21.0334 19.5098L20.7277 19.1826L20.5539 19.1514ZM8.26384 19.9316L7.86345 20.1318L7.78435 20.5732L8.09001 20.9004L8.26384 20.9316L8.66423 20.7305L8.74333 20.29L8.43767 19.9629L8.26384 19.9316ZM18.8185 20.5898L18.4181 20.79L18.339 21.2314L18.6447 21.5586L18.8185 21.5898L19.2189 21.3887L19.298 20.9482L18.9924 20.6211L18.8185 20.5898ZM10.172 21.1328L9.77165 21.334L9.69255 21.7744L9.99822 22.1025L10.172 22.1328L10.5724 21.9326L10.6515 21.4912L10.3449 21.1641L10.172 21.1328ZM16.7804 21.5547L16.3801 21.7549L16.301 22.1963L16.6066 22.5234L16.7804 22.5547L17.1808 22.3535L17.2599 21.9131L16.9543 21.585L16.7804 21.5547ZM12.3146 21.834L11.9133 22.0342L11.8351 22.4756L12.1408 22.8027L12.3146 22.834L12.715 22.6328L12.7941 22.1924L12.4875 21.8652L12.3146 21.834ZM14.5646 21.9688L14.1642 22.1689L14.0851 22.6104L14.3918 22.9375L14.5646 22.9688L14.965 22.7676L15.0441 22.3271L14.7385 22L14.5646 21.9688ZM20.7082 23.5762L23.6955 30.4043L19.757 29.9668L17.5246 33.2285L14.8019 26.8125C15.0024 26.7207 15.1924 26.5988 15.3566 26.4346L16.3713 25.4199L17.6974 25.9697H17.6984C18.6719 26.3724 19.8009 25.9041 20.2043 24.9307L20.2082 24.9219L20.7082 23.5762ZM7.05876 23.9971H7.28337L7.81853 24.9785L7.79607 24.9307C8.1994 25.904 9.32926 26.3732 10.3029 25.9697L11.6291 25.4199L12.6437 26.4346C12.8096 26.6004 13.0016 26.7234 13.2043 26.8154L10.4758 33.2285L8.24333 29.9668L4.299 30.4053L7.05876 23.9971Z" fill="#E4B564"/>
</svg>
