<svg width="32" height="29" viewBox="0 0 32 29" fill="none" xmlns="http://www.w3.org/2000/svg">
<path d="M11.5 0.5C10.9531 0.5 10.5 0.953125 10.5 1.5V1.73633C7.41797 2.42383 5.09961 5.08594 5.02734 8.35156C4.44336 8.70117 4 9.27148 4 10V11.5H5V13.2734H5.00195C5.00586 13.5566 5.08594 13.7793 5.15039 14C5.18359 14.1152 5.2168 14.2207 5.23633 14.2988C5.25781 14.377 5.25977 14.4551 5.25977 14.375C5.25977 15.002 5.79297 15.5 6.41211 15.5H6.54688C6.625 17.084 7.36523 18.4883 8.5 19.4375V21.084C7.78125 21.2539 6.18164 21.6699 4.5625 22.3184C3.47656 22.7539 2.37891 23.293 1.52148 23.9629C0.662109 24.6328 0 25.4746 0 26.5V29H24V26.5C24 25.9473 23.8027 25.4492 23.4902 25H32V23.0996C32 22.2207 31.4551 21.4883 30.7578 20.8867C30.0605 20.2852 29.1738 19.7852 28.2949 19.3691C26.7012 18.6191 25.2832 18.2051 25 18.125V17.5078C26.1094 16.7461 26.8457 15.4902 26.9453 14.0566H27.0137C27.5645 14.0566 28.0391 13.6133 28.0391 13.0527C28.0391 13.1426 28.0391 13.0781 28.0547 13.0156C28.0723 12.9551 28.0977 12.8711 28.125 12.7793C28.1699 12.6289 28.2148 12.4668 28.2344 12.2734H28.5V10.5H29.5V9C29.5 8.25977 29.0879 7.58984 28.4473 7.24414C28.1406 4.80664 26.3711 2.80273 24 2.19336V2C24 1.44922 23.5508 1 23 1H22C21.4492 1 21 1.44922 21 2V2.19531C20.1621 2.41016 19.4004 2.80273 18.75 3.32422C18.9531 3.58984 19.1445 3.86523 19.3145 4.15234C19.8184 3.73633 20.4082 3.41797 21.0527 3.22266C21.1367 3.39258 21.3105 3.5 21.5 3.5C21.7715 3.5 21.9941 3.2832 22 3.01172V2H23V3.01172C23.0078 3.2832 23.2285 3.5 23.5 3.5C23.6895 3.5 23.8633 3.39062 23.9473 3.2207C25.707 3.75195 27.0312 5.21289 27.3926 7.01172C27.1641 7.0625 27 7.26562 27 7.5C27 7.77539 27.2246 8 27.5 8C27.5371 8 27.5742 7.99609 27.6094 7.98633L27.8184 8.05859C28.2266 8.19727 28.5 8.57422 28.5 9V9.5H21.5V10.5H26V12.4453L26.668 12.0918C26.6797 12.0859 26.6914 12.0801 26.7051 12.0781C26.748 12.0703 26.8145 12.0625 26.8809 12.0566C26.9453 12.0508 27.0098 12.0449 27.0586 12.041C27.084 12.041 27.1035 12.0391 27.1172 12.0391H27.1191C27.207 12.0391 27.25 12.0898 27.25 12.1426C27.25 12.1211 27.2168 12.3242 27.166 12.4961C27.1406 12.582 27.1133 12.6699 27.0918 12.7559C27.0684 12.8398 27.0391 12.8926 27.0391 13.0527C27.0391 13.0508 27.0449 13.0566 27.0137 13.0566H26V13.75C26 15.502 24.7793 16.9336 23.125 17.2285L22.9844 17.2539L22.877 17.3516C22.7715 17.4453 22.6445 17.5 22.5 17.5C22.3555 17.5 22.2285 17.4453 22.123 17.3516L22.0156 17.2539L21.875 17.2285C21.5879 17.1777 21.2871 17.127 21 17.0781V17H20V18.9746L20.0527 19.0801C20.0527 19.0801 20.8047 20.5 22.5 20.5C24.0781 20.5 24.8086 19.3125 24.9062 19.1426C25.3613 19.2773 26.5059 19.6328 27.8672 20.2734C28.6973 20.666 29.5215 21.1406 30.1055 21.6445C30.6895 22.1484 31 22.6484 31 23.0996V24H22.5234C22.5098 23.9883 22.4941 23.9746 22.4785 23.9629C21.6211 23.293 20.5234 22.7539 19.4375 22.3184C17.8184 21.6699 16.2188 21.2539 15.5 21.084V19.4375C16.6348 18.4883 17.375 17.084 17.4531 15.5H17.5879C18.207 15.5 18.7402 15.002 18.7402 14.375C18.7402 14.4551 18.7422 14.377 18.7637 14.2988C18.7832 14.2207 18.8164 14.1152 18.8496 14C18.9141 13.7793 18.9941 13.5566 18.998 13.2734H19V11.5H20V10C20 9.27344 19.5566 8.70117 18.9746 8.35352C18.9023 5.08594 16.582 2.42383 13.5 1.73633V1.5C13.5 0.953125 13.0469 0.5 12.5 0.5H11.5ZM11.5 1.5H12.5V2.51367C12.5078 2.7832 12.7285 3 13 3C13.2031 3 13.3867 2.87695 13.4629 2.6875C15.9141 3.30078 17.7637 5.41211 17.9766 8C17.7109 8.01367 17.5 8.23242 17.5 8.5C17.5 8.77539 17.7246 9 18 9C18.0371 9 18.0762 8.99609 18.1113 8.98633L18.3262 9.06055C18.7188 9.19727 19 9.55859 19 10V10.5H5V10C5 9.56055 5.28125 9.19922 5.67383 9.0625L5.88672 8.98633C5.92383 8.99609 5.96094 9 6 9C6.27539 9 6.5 8.77539 6.5 8.5C6.5 8.23242 6.28906 8.01367 6.02344 8C6.23633 5.41211 8.08594 3.30273 10.5371 2.6875C10.6133 2.87695 10.7969 3 11 3C11.2715 3 11.4922 2.7832 11.5 2.51367V1.5ZM11 4C10.7246 4 10.5 4.22461 10.5 4.5C10.5 4.77539 10.7246 5 11 5C11.2754 5 11.5 4.77539 11.5 4.5C11.5 4.22461 11.2754 4 11 4ZM13 4C12.7246 4 12.5 4.22461 12.5 4.5C12.5 4.77539 12.7246 5 13 5C13.2754 5 13.5 4.77539 13.5 4.5C13.5 4.22461 13.2754 4 13 4ZM21.5 4.5C21.2246 4.5 21 4.72461 21 5C21 5.27539 21.2246 5.5 21.5 5.5C21.7754 5.5 22 5.27539 22 5C22 4.72461 21.7754 4.5 21.5 4.5ZM23.5 4.5C23.2246 4.5 23 4.72461 23 5C23 5.27539 23.2246 5.5 23.5 5.5C23.7754 5.5 24 5.27539 24 5C24 4.72461 23.7754 4.5 23.5 4.5ZM11 6C10.7246 6 10.5 6.22461 10.5 6.5C10.5 6.77539 10.7246 7 11 7C11.2754 7 11.5 6.77539 11.5 6.5C11.5 6.22461 11.2754 6 11 6ZM13 6C12.7246 6 12.5 6.22461 12.5 6.5C12.5 6.77539 12.7246 7 13 7C13.2754 7 13.5 6.77539 13.5 6.5C13.5 6.22461 13.2754 6 13 6ZM25.5 7C25.2246 7 25 7.22461 25 7.5C25 7.77539 25.2246 8 25.5 8C25.7754 8 26 7.77539 26 7.5C26 7.22461 25.7754 7 25.5 7ZM8 8C7.72461 8 7.5 8.22461 7.5 8.5C7.5 8.77539 7.72461 9 8 9C8.27539 9 8.5 8.77539 8.5 8.5C8.5 8.22461 8.27539 8 8 8ZM16 8C15.7246 8 15.5 8.22461 15.5 8.5C15.5 8.77539 15.7246 9 16 9C16.2754 9 16.5 8.77539 16.5 8.5C16.5 8.22461 16.2754 8 16 8ZM27 10.5H27.5V11.1094C27.3789 11.0645 27.252 11.0391 27.1191 11.0391C27.0645 11.0391 27.0801 11.0391 27.0605 11.0391C27.0449 11.041 27.0234 11.043 27 11.0449V10.5ZM6 11.5H6.5V12.0156C6.47656 12.0137 6.44922 12.0098 6.42969 12.0078C6.39648 12.0059 6.36914 12.0039 6.34766 12.002C6.32617 12.002 6.33789 12 6.28125 12C6.18555 12 6.0918 12.0137 6 12.0332V11.5ZM7.5 11.5H16.5V13.4219L17.1719 13.0703C17.1816 13.0645 17.207 13.0547 17.2324 13.0488C17.2852 13.041 17.3613 13.0312 17.4375 13.0234C17.5137 13.0176 17.5879 13.0098 17.6465 13.0059C17.6738 13.0039 17.6973 13.002 17.7129 13C17.7305 13 17.7676 13 17.7188 13C17.8906 13 18 13.1172 18 13.25C18 13.2578 17.9531 13.5039 17.8906 13.7188C17.8574 13.8281 17.8262 13.9355 17.7969 14.0371C17.7695 14.1387 17.7402 14.207 17.7402 14.375C17.7402 14.4375 17.6895 14.5 17.5879 14.5H16.5V15.2363C16.5 17.4551 14.9004 19.2871 12.7949 19.6621L12.6523 19.6875L12.5469 19.7852C12.3965 19.9199 12.2109 20 12 20C11.7891 20 11.6035 19.9199 11.4531 19.7852L11.3477 19.6875L11.2051 19.6621C9.09961 19.2871 7.5 17.457 7.5 15.2363V14.5H6.41211C6.31055 14.5 6.25977 14.4375 6.25977 14.375C6.25977 14.207 6.23047 14.1387 6.20312 14.0371C6.17383 13.9355 6.14258 13.8281 6.10938 13.7188C6.04688 13.5039 6 13.2578 6 13.25C6 13.1172 6.10938 13 6.28125 13C6.23242 13 6.26953 13 6.28516 13C6.30078 13.002 6.32617 13.0039 6.35352 13.0059C6.41211 13.0098 6.48633 13.0176 6.5625 13.0234C6.63867 13.0312 6.71484 13.041 6.76758 13.0488C6.79492 13.0547 6.82617 13.0684 6.83398 13.0703L7.5 13.4219V11.5ZM17.5 11.5H18V12.0332C17.9082 12.0137 17.8145 12 17.7188 12C17.6621 12 17.6738 12.002 17.6523 12.002C17.6309 12.0039 17.6035 12.0059 17.5703 12.0078C17.5508 12.0098 17.5215 12.0137 17.5 12.0156V11.5ZM24.25 11.5C23.8359 11.5 23.5 11.8359 23.5 12.25C23.5 12.6641 23.8359 13 24.25 13C24.6641 13 25 12.6641 25 12.25C25 11.8359 24.6641 11.5 24.25 11.5ZM9.75 13C9.33594 13 9 13.3359 9 13.75C9 14.1641 9.33594 14.5 9.75 14.5C10.1641 14.5 10.5 14.1641 10.5 13.75C10.5 13.3359 10.1641 13 9.75 13ZM14.25 13C13.8359 13 13.5 13.3359 13.5 13.75C13.5 14.1641 13.8359 14.5 14.25 14.5C14.6641 14.5 15 14.1641 15 13.75C15 13.3359 14.6641 13 14.25 13ZM24 18.0195V18.7012C23.9414 18.8164 23.5723 19.5 22.5 19.5C21.4277 19.5 21.0586 18.8164 21 18.7012V18.0938C21.2383 18.1328 21.3652 18.1543 21.5859 18.1934C21.8418 18.3789 22.1562 18.5 22.5 18.5C22.8496 18.5 23.168 18.377 23.4258 18.1855C23.623 18.1426 23.8145 18.0859 24 18.0195ZM9.5 20.0996C9.93555 20.3242 10.4023 20.4961 10.8984 20.5977C11.2031 20.8359 11.5781 21 12 21C12.4219 21 12.7969 20.8359 13.1016 20.5977C13.5977 20.4961 14.0645 20.3242 14.5 20.0996V21.8281C14.4395 21.9492 13.7891 23.2012 12 23.2012C10.2109 23.2012 9.56055 21.9492 9.5 21.8281V20.0996ZM22.5 22C22.2246 22 22 22.2246 22 22.5C22 22.7754 22.2246 23 22.5 23C22.7754 23 23 22.7754 23 22.5C23 22.2246 22.7754 22 22.5 22ZM24.5 22C24.2246 22 24 22.2246 24 22.5C24 22.7754 24.2246 23 24.5 23C24.7754 23 25 22.7754 25 22.5C25 22.2246 24.7754 22 24.5 22ZM26.5 22C26.2246 22 26 22.2246 26 22.5C26 22.7754 26.2246 23 26.5 23C26.7754 23 27 22.7754 27 22.5C27 22.2246 26.7754 22 26.5 22ZM28.5 22C28.2246 22 28 22.2246 28 22.5C28 22.7754 28.2246 23 28.5 23C28.7754 23 29 22.7754 29 22.5C29 22.2246 28.7754 22 28.5 22ZM8.50586 22.1133L8.55273 22.209C8.55273 22.209 9.58984 24.2012 12 24.2012C14.4102 24.2012 15.4473 22.209 15.4473 22.209L15.4941 22.1133C16.2539 22.3008 17.6387 22.6738 19.0625 23.2461C20.1016 23.6621 21.1289 24.1777 21.8652 24.75C22.5996 25.3242 23 25.9141 23 26.5V28H1V26.5C1 25.9141 1.40039 25.3242 2.13477 24.75C2.87109 24.1777 3.89844 23.6621 4.9375 23.2461C6.36133 22.6738 7.74609 22.3008 8.50586 22.1133ZM3 26C2.72461 26 2.5 26.2246 2.5 26.5C2.5 26.7754 2.72461 27 3 27C3.27539 27 3.5 26.7754 3.5 26.5C3.5 26.2246 3.27539 26 3 26ZM5 26C4.72461 26 4.5 26.2246 4.5 26.5C4.5 26.7754 4.72461 27 5 27C5.27539 27 5.5 26.7754 5.5 26.5C5.5 26.2246 5.27539 26 5 26ZM7 26C6.72461 26 6.5 26.2246 6.5 26.5C6.5 26.7754 6.72461 27 7 27C7.27539 27 7.5 26.7754 7.5 26.5C7.5 26.2246 7.27539 26 7 26ZM9 26C8.72461 26 8.5 26.2246 8.5 26.5C8.5 26.7754 8.72461 27 9 27C9.27539 27 9.5 26.7754 9.5 26.5C9.5 26.2246 9.27539 26 9 26ZM11 26C10.7246 26 10.5 26.2246 10.5 26.5C10.5 26.7754 10.7246 27 11 27C11.2754 27 11.5 26.7754 11.5 26.5C11.5 26.2246 11.2754 26 11 26ZM13 26C12.7246 26 12.5 26.2246 12.5 26.5C12.5 26.7754 12.7246 27 13 27C13.2754 27 13.5 26.7754 13.5 26.5C13.5 26.2246 13.2754 26 13 26ZM15 26C14.7246 26 14.5 26.2246 14.5 26.5C14.5 26.7754 14.7246 27 15 27C15.2754 27 15.5 26.7754 15.5 26.5C15.5 26.2246 15.2754 26 15 26ZM17 26C16.7246 26 16.5 26.2246 16.5 26.5C16.5 26.7754 16.7246 27 17 27C17.2754 27 17.5 26.7754 17.5 26.5C17.5 26.2246 17.2754 26 17 26ZM19 26C18.7246 26 18.5 26.2246 18.5 26.5C18.5 26.7754 18.7246 27 19 27C19.2754 27 19.5 26.7754 19.5 26.5C19.5 26.2246 19.2754 26 19 26ZM21 26C20.7246 26 20.5 26.2246 20.5 26.5C20.5 26.7754 20.7246 27 21 27C21.2754 27 21.5 26.7754 21.5 26.5C21.5 26.2246 21.2754 26 21 26Z" fill="#E4B564"/>
</svg>
